<svg xmlns="http://www.w3.org/2000/svg" version="1.1" xmlns:xlink="http://www.w3.org/1999/xlink" width="200" height="200"><svg xmlns="http://www.w3.org/2000/svg" version="1.1" xmlns:xlink="http://www.w3.org/1999/xlink" viewBox="0 0 200 200"><rect width="200" height="200" fill="url('#gradient')"></rect><defs><linearGradient id="SvgjsLinearGradient1016" gradientTransform="rotate(45 0.5 0.5)"><stop offset="0%" stop-color="#845f1f"></stop><stop offset="100%" stop-color="#f5e8ce"></stop></linearGradient></defs><g><g fill="#916b17" transform="matrix(7.441259588211547,0,0,7.441259588211547,2.0318701508356014,152.90673153218503)" stroke="#1c2931" stroke-width="0.2"><path d="M6.69-4.82L4.50-4.82L4.50 0L1.07 0L1.07-14.22L6.75-14.22Q8.38-14.22 9.63-13.62Q10.89-13.02 11.58-11.91Q12.27-10.80 12.27-9.39L12.27-9.39Q12.27-7.31 10.78-6.07Q9.29-4.82 6.69-4.82L6.69-4.82ZM4.50-11.57L4.50-7.47L6.75-7.47Q7.74-7.47 8.27-7.97Q8.79-8.47 8.79-9.38L8.79-9.38Q8.79-10.37 8.25-10.97Q7.71-11.56 6.79-11.57L6.79-11.57L4.50-11.57ZM18.77 0L14.09 0L14.09-14.22L18.67-14.22Q20.56-14.22 22.06-13.36Q23.56-12.51 24.41-10.95Q25.25-9.39 25.26-7.46L25.26-7.46L25.26-6.81Q25.26-4.85 24.44-3.31Q23.61-1.76 22.11-0.88Q20.62-0.01 18.77 0L18.77 0ZM18.67-11.57L17.52-11.57L17.52-2.64L18.71-2.64Q20.19-2.64 20.98-3.69Q21.77-4.74 21.77-6.81L21.77-6.81L21.77-7.42Q21.77-9.48 20.98-10.53Q20.19-11.57 18.67-11.57L18.67-11.57Z"></path></g></g></svg><style>@media (prefers-color-scheme: light) { :root { filter: contrast(1) brightness(1); } }
@media (prefers-color-scheme: dark) { :root { filter: none; } }
</style></svg>